<svg id="Layer_2" data-name="Layer 2" xmlns="http://www.w3.org/2000/svg" width="163.582" height="58.46" viewBox="0 0 163.582 58.46">
  <g id="Layer_1" data-name="Layer 1">
    <path id="Path_1" data-name="Path 1" d="M78,18.36a6.74,6.74,0,0,1-.28,1.94,5.88,5.88,0,0,1-.89,1.79,5.5,5.5,0,0,1-1.58,1.44,7,7,0,0,1-2.38.86v.23a7.57,7.57,0,0,1,2.34.57,5.74,5.74,0,0,1,1.9,1.26,6,6,0,0,1,1.29,2,7.14,7.14,0,0,1,.47,2.69,6.34,6.34,0,0,1-1,3.55,7.92,7.92,0,0,1-2.51,2.41,11.6,11.6,0,0,1-3.55,1.4,18.46,18.46,0,0,1-4.07.45H66q-1.11,0-2.37-.06c-.85,0-1.7-.09-2.57-.17a18.39,18.39,0,0,1-2.35-.34v-26c.52-.08,1.12-.15,1.79-.23s1.38-.14,2.15-.19,1.55-.08,2.35-.11,1.61,0,2.42,0a25.72,25.72,0,0,1,3.84.29,11.29,11.29,0,0,1,3.39,1,6.46,6.46,0,0,1,2.44,2A5.53,5.53,0,0,1,78,18.36ZM66,23.15h1.34A10.87,10.87,0,0,0,68.6,23a8.52,8.52,0,0,0,2.68-1.34,2.78,2.78,0,0,0,1.09-2.32A2.71,2.71,0,0,0,72,17.8a2.85,2.85,0,0,0-1.11-.95,5.42,5.42,0,0,0-1.57-.45,14.76,14.76,0,0,0-1.77-.11h-2a13.75,13.75,0,0,0-1.43.11v6.71Zm1.78,11.23a10.89,10.89,0,0,0,2-.18,5.45,5.45,0,0,0,1.7-.63,3.41,3.41,0,0,0,1.17-1.09,2.92,2.92,0,0,0,.43-1.64,3.12,3.12,0,0,0-.53-1.92,3.24,3.24,0,0,0-1.37-1.08,6.54,6.54,0,0,0-1.89-.45c-.69-.06-1.39-.09-2.09-.09H64.08v6.86a2.78,2.78,0,0,0,.66.11,9.491,9.491,0,0,1,1,.06h1.08Z" fill="#ec2227"/>
    <path id="Path_2" data-name="Path 2" d="M89.23,31.59c0,1.92.61,2.87,1.84,2.87a5.24,5.24,0,0,0,1-.09,9.629,9.629,0,0,0,1.12-.32l.64,4.11a12.9,12.9,0,0,1-2.13.65,12.21,12.21,0,0,1-2.85.33,5.56,5.56,0,0,1-3.64-1.06A4.29,4.29,0,0,1,84,34.61V12.14h5.28Z" fill="#ec2227"/>
    <path id="Path_3" data-name="Path 3" d="M96.09,28.65A10.87,10.87,0,0,1,98.69,21q2.59-2.79,7.43-2.79a11.5,11.5,0,0,1,4.41.79,8.58,8.58,0,0,1,3.13,2.21,9.24,9.24,0,0,1,1.86,3.32,13.19,13.19,0,0,1,.63,4.16,13.25,13.25,0,0,1-.68,4.36,9.37,9.37,0,0,1-2,3.3,8.56,8.56,0,0,1-3.15,2.07,11.74,11.74,0,0,1-4.24.72,11.56,11.56,0,0,1-4.45-.79,8.5,8.5,0,0,1-3.13-2.21,9.08,9.08,0,0,1-1.85-3.32,13.65,13.65,0,0,1-.56-4.17Zm5.43,0a10.29,10.29,0,0,0,.26,2.34,6,6,0,0,0,.81,1.91A4.22,4.22,0,0,0,104,34.2a4.27,4.27,0,0,0,2.11.49c3.06,0,4.6-2,4.6-6a11.481,11.481,0,0,0-.25-2.43,5.54,5.54,0,0,0-.79-1.92A3.71,3.71,0,0,0,108.25,23a4.53,4.53,0,0,0-2.13-.46A4.2,4.2,0,0,0,102.74,24a7.11,7.11,0,0,0-1.22,4.65Z" fill="#ec2227"/>
    <path id="Path_4" data-name="Path 4" d="M120,28.65a10.87,10.87,0,0,1,2.6-7.69c1.74-1.86,4.21-2.79,7.43-2.79a11.5,11.5,0,0,1,4.41.79,8.5,8.5,0,0,1,3.13,2.21,9.42,9.42,0,0,1,1.87,3.32,13.49,13.49,0,0,1,.62,4.16,13.249,13.249,0,0,1-.68,4.36,9.22,9.22,0,0,1-2,3.3,8.4,8.4,0,0,1-3.15,2.07,12.89,12.89,0,0,1-8.69-.07,8.5,8.5,0,0,1-3.13-2.21,9.22,9.22,0,0,1-1.85-3.32,13.65,13.65,0,0,1-.56-4.13Zm5.43,0a10.291,10.291,0,0,0,.26,2.34,5.81,5.81,0,0,0,.82,1.91,4.1,4.1,0,0,0,1.41,1.3,4.3,4.3,0,0,0,2.11.49q4.6,0,4.6-6a11.51,11.51,0,0,0-.24-2.43,5.55,5.55,0,0,0-.8-1.92A3.71,3.71,0,0,0,132.15,23a4.53,4.53,0,0,0-2.13-.46A4.18,4.18,0,0,0,126.65,24a7.2,7.2,0,0,0-1.23,4.65Z" fill="#ec2227"/>
    <path id="Path_5" data-name="Path 5" d="M163.05,31.59v3.29a30.3,30.3,0,0,0,.34,3.69h-3.65L159,35.82h-.49a6.32,6.32,0,0,1-2.47,2.39,8.8,8.8,0,0,1-10-1.58c-1.46-1.65-2.19-4.19-2.19-7.64a14.83,14.83,0,0,1,.63-4.48,9.28,9.28,0,0,1,1.84-3.4,8.24,8.24,0,0,1,3-2.15,12.22,12.22,0,0,1,6.47-.54c.64.14,1.27.31,1.9.51V12.14h5.28Zm-9.47,3.1a4.22,4.22,0,0,0,2.76-.81,4.68,4.68,0,0,0,1.43-2.32V23.64a4.62,4.62,0,0,0-1.45-.77,6.64,6.64,0,0,0-2-.25,4.61,4.61,0,0,0-3.75,1.47c-.82,1-1.23,2.67-1.23,5.05a7.05,7.05,0,0,0,1,4A3.62,3.62,0,0,0,153.58,34.69Z" fill="#ec2227"/>
    <path id="Path_6" data-name="Path 6" d="M58.68,43.77c.24,0,.52-.06.83-.08h2.91a7.77,7.77,0,0,1,2.87.48,5.38,5.38,0,0,1,2,1.32,5.5,5.5,0,0,1,1.2,2,8.41,8.41,0,0,1,0,5,5.67,5.67,0,0,1-1.18,2.1A5.83,5.83,0,0,1,65.27,56a7.6,7.6,0,0,1-3.06.56H59.33l-.65-.06Zm3.8,1.42h-2V54.8a1.28,1.28,0,0,0,.35,0h1.45a5.24,5.24,0,0,0,2.26-.43A3.82,3.82,0,0,0,66,53.42a4.22,4.22,0,0,0,.78-1.59A7.56,7.56,0,0,0,67,50a6.93,6.93,0,0,0-.21-1.66A4.35,4.35,0,0,0,66,46.79a4,4,0,0,0-1.39-1.15A4.65,4.65,0,0,0,62.48,45.19Z" fill="#bf2726"/>
    <path id="Path_7" data-name="Path 7" d="M74.73,51.65A6.75,6.75,0,0,1,75,49.56a4.16,4.16,0,0,1,.9-1.58,4,4,0,0,1,1.45-1,5.18,5.18,0,0,1,2-.34,5.05,5.05,0,0,1,2,.38,4,4,0,0,1,1.44,1,4.35,4.35,0,0,1,.85,1.59,6.54,6.54,0,0,1,.28,2,6.34,6.34,0,0,1-.31,2.07,4.4,4.4,0,0,1-.9,1.57,3.86,3.86,0,0,1-1.44,1,5.16,5.16,0,0,1-1.94.34,5,5,0,0,1-2-.38,3.89,3.89,0,0,1-1.43-1,4.41,4.41,0,0,1-.9-1.58A7,7,0,0,1,74.73,51.65Zm1.8,0A5.719,5.719,0,0,0,76.68,53a3.67,3.67,0,0,0,.49,1.14,2.48,2.48,0,0,0,2.19,1.12q2.77,0,2.77-3.57A6.07,6.07,0,0,0,82,50.3a3.44,3.44,0,0,0-.48-1.14,2.64,2.64,0,0,0-.86-.8,2.58,2.58,0,0,0-1.28-.31,2.55,2.55,0,0,0-2.11.9,4.23,4.23,0,0,0-.74,2.7Z" fill="#bf2726"/>
    <path id="Path_8" data-name="Path 8" d="M97,56.37V51.15a4.21,4.21,0,0,0-.49-2.27,1.9,1.9,0,0,0-1.73-.75,2.84,2.84,0,0,0-2.84,2v6.23H90.3V46.92h1.16l.32,1.26h.16a4.39,4.39,0,0,1,1.36-1.09,4.32,4.32,0,0,1,2-.44,5,5,0,0,1,1.46.19,2.24,2.24,0,0,1,1,.67,3.16,3.16,0,0,1,.64,1.27,8.21,8.21,0,0,1,.21,2v5.56Z" fill="#bf2726"/>
    <path id="Path_9" data-name="Path 9" d="M105.44,47.51a9.39,9.39,0,0,1,4-.77,4.44,4.44,0,0,1,1.73.28,2.65,2.65,0,0,1,1,.71,2.29,2.29,0,0,1,.48,1,5.529,5.529,0,0,1,.11,1.06,19.289,19.289,0,0,1-.07,2,21.257,21.257,0,0,0-.07,2.16,9.649,9.649,0,0,0,.06,1.33,6.891,6.891,0,0,0,.21,1.18h-1.21L111.27,55h-.18a4.59,4.59,0,0,1-.48.55,3.271,3.271,0,0,1-.69.49,4.54,4.54,0,0,1-.91.36,4.17,4.17,0,0,1-1.17.14,4,4,0,0,1-1.23-.18,3,3,0,0,1-1-.54A2.29,2.29,0,0,1,105,55a2.51,2.51,0,0,1-.23-1.11,2.62,2.62,0,0,1,.35-1.4,3,3,0,0,1,.9-1,4.15,4.15,0,0,1,1.27-.55,5.82,5.82,0,0,1,1.42-.18h1.59l.44.05h.32a4.583,4.583,0,0,1,.06-.47c.01-.13,0-.3,0-.5a2.92,2.92,0,0,0-.11-.85,1.16,1.16,0,0,0-.35-.55,1.44,1.44,0,0,0-.66-.3,4.78,4.78,0,0,0-1-.09,5.25,5.25,0,0,0-.75.06,7.58,7.58,0,0,0-.83.15c-.28.07-.55.15-.82.24a7.291,7.291,0,0,0-.73.31Zm5.63,4.58-.3-.06-.4-.05h-1.38a3.4,3.4,0,0,0-1.76.4,1.44,1.44,0,0,0-.66,1.35,1.23,1.23,0,0,0,.51,1.08,2.24,2.24,0,0,0,1.32.36,3.3,3.3,0,0,0,1-.15,3.22,3.22,0,0,0,.79-.38,2.13,2.13,0,0,0,.53-.5,2.37,2.37,0,0,0,.31-.55Z" fill="#bf2726"/>
    <path id="Path_10" data-name="Path 10" d="M118.58,46.92h1.6V45l1.66-.43v2.34h2.84v1.4h-2.84v4.83a3.15,3.15,0,0,0,.29,1.6,1.07,1.07,0,0,0,1,.47,3,3,0,0,0,.82-.1c.24-.07.52-.15.83-.26l.38,1.17a7.4,7.4,0,0,1-1.23.42,5.37,5.37,0,0,1-1.42.17,2.15,2.15,0,0,1-1.79-.68,3.71,3.71,0,0,1-.53-2.23V48.32h-1.6Z" fill="#bf2726"/>
    <path id="Path_11" data-name="Path 11" d="M130.86,44.67a1,1,0,0,1,.32-.75,1.15,1.15,0,0,1,.85-.33,1.2,1.2,0,0,1,.86.33.975.975,0,0,1,0,1.48,1.23,1.23,0,0,1-.86.31,1.17,1.17,0,0,1-.85-.31,1,1,0,0,1-.32-.73Zm.34,2.25h1.65v9.45H131.2Z" fill="#bf2726"/>
    <path id="Path_12" data-name="Path 12" d="M139.64,51.65a6.47,6.47,0,0,1,.31-2.09,4.16,4.16,0,0,1,.9-1.58,3.9,3.9,0,0,1,1.45-1,5.18,5.18,0,0,1,1.95-.34,5,5,0,0,1,2,.38,3.84,3.84,0,0,1,1.44,1,4.37,4.37,0,0,1,.86,1.59,6.54,6.54,0,0,1,.28,2,6.34,6.34,0,0,1-.32,2.07,4.4,4.4,0,0,1-.9,1.57,3.86,3.86,0,0,1-1.44,1,5.11,5.11,0,0,1-1.93.34,4.94,4.94,0,0,1-2.05-.38,3.81,3.81,0,0,1-1.43-1,4.41,4.41,0,0,1-.85-1.57,6.63,6.63,0,0,1-.27-1.99Zm1.8,0a5.72,5.72,0,0,0,.15,1.31,3.45,3.45,0,0,0,.49,1.14,2.59,2.59,0,0,0,.87.81,2.55,2.55,0,0,0,1.32.31c1.84,0,2.77-1.19,2.77-3.57a6.069,6.069,0,0,0-.15-1.35,3.44,3.44,0,0,0-.48-1.14,2.64,2.64,0,0,0-.86-.8,2.61,2.61,0,0,0-1.28-.31,2.54,2.54,0,0,0-2.11.9,4.23,4.23,0,0,0-.72,2.7Z" fill="#bf2726"/>
    <path id="Path_13" data-name="Path 13" d="M161.92,56.37V51.15a4.31,4.31,0,0,0-.48-2.27,1.91,1.91,0,0,0-1.73-.75,2.82,2.82,0,0,0-2.84,2v6.23h-1.66V46.92h1.15l.33,1.26h.16a4.39,4.39,0,0,1,1.36-1.09,4.28,4.28,0,0,1,2-.44,4.92,4.92,0,0,1,1.46.19,2.32,2.32,0,0,1,1.06.67,3,3,0,0,1,.63,1.27,7.71,7.71,0,0,1,.22,2v5.56Z" fill="#bf2726"/>
    <rect id="Rectangle_2" data-name="Rectangle 2" width="49.44" height="49.44" rx="4.31" transform="translate(0 9.02)" fill="#bf2726"/>
    <path id="Path_14" data-name="Path 14" d="M43,37.29,38.46,41.8,24.84,55.43,11.22,41.8,6.7,37.29A9.631,9.631,0,1,1,20.32,23.67l4.52,4.52,4.52-4.52A9.638,9.638,0,1,1,43,37.29Z" fill="#ec2227"/>
    <rect id="Rectangle_3" data-name="Rectangle 3" width="8.76" height="1.44" rx="0.39" transform="translate(20.34 6.52)" fill="#bf2726"/>
    <rect id="Rectangle_4" data-name="Rectangle 4" width="7.75" height="1.27" rx="0.39" transform="translate(20.84 3.26)" fill="#bf2726"/>
    <rect id="Rectangle_5" data-name="Rectangle 5" width="5.81" height="1.27" rx="0.39" transform="translate(21.82)" fill="#bf2726"/>
  </g>
</svg>
